# xmcd
#
# Track frame offsets: 
#        150
#        28335
#        47960
#        65983
#        83761
#        107857
#        124497
#        150797
#        175290
#        193303
#        216547
#        237802
#        257920
#        286781
#        304975
#
# Disc length: 4362 seconds
#
# Revision: 0
# Processed by: cddbd v1.5.1PL2 Copyright (c) Steve Scherf et al.
# Submitted via: ExactAudioCopy v0.95a4
#
DISCID=e811080f
DTITLE=Navajo - Tatanka
DYEAR=1900
DGENRE=Indian
TTITLE0=Sunguiman
TTITLE1=Looking Far North
TTITLE2=The Last Of The Mohicans
TTITLE3=Chostaw Song
TTITLE4=Flying Condor
TTITLE5=Indian Spirit
TTITLE6=Land Of Promise
TTITLE7=Ly-O-Lay Ale Loya
TTITLE8=Sacred Prayer
TTITLE9=White Buffalo
TTITLE10=A-La-Ke
TTITLE11=Wishes Of Happiness And Prosperity
TTITLE12=Coyote Moon Call
TTITLE13=May You Walk In Sunshine
TTITLE14=Dawa
EXTD=
EXTT0=
EXTT1=
EXTT2=
EXTT3=
EXTT4=
EXTT5=
EXTT6=
EXTT7=
EXTT8=
EXTT9=
EXTT10=
EXTT11=
EXTT12=
EXTT13=
EXTT14=
PLAYORDER=
